<mxfile host="app.diagrams.net" modified="2023-07-20T15:18:30.525Z" agent="Mozilla/5.0 (Windows NT 10.0; Win64; x64) AppleWebKit/537.36 (KHTML, like Gecko) Chrome/115.0.0.0 Safari/537.36" version="21.6.3" etag="nrrKUAzVLSmzrjo6j-IG" type="github">
  <diagram name="PÃ¡gina-1" id="vHtJ28Z42Mw5RnDDg2XL">
    <mxGraphModel>
      <root>
        <mxCell id="0" />
        <mxCell id="1" parent="0" />
      </root>
    </mxGraphModel>
  </diagram>
</mxfile>
